# xmcd
#
# Track frame offsets: 
#        150
#        47550
#        70465
#        91920
#        128520
#        135110
#        164935
#        185062
#        206792
#        222337
#        236332
#
# Disc length: 3572 seconds
#
# Revision: 2
# Processed by: cddbd v1.5.2PL0 Copyright (c) Steve Scherf et al.
# Submitted via: ExactAudioCopy v0.99pb5
#
DISCID=a00df20b
DTITLE=String Cheese Incident - OTR 04-28-2002 New Orleans, LA [CD3
DTITLE=)
DYEAR=2002
DGENRE=Jam Band
TTITLE0=Emma's Dream
TTITLE1=Texas Town
TTITLE2=Lonesome Fiddle Blues»
TTITLE3=Heritage Jam»
TTITLE4=Lonesome Fiddle Blues
TTITLE5=Dirk»
TTITLE6=Jungle Boogie»
TTITLE7=Dirk
TTITLE8=Chatter
TTITLE9=Dudley's Kitchen
TTITLE10=Signed, Sealed, Delivered, I'm Yours
EXTD=
EXTT0=
EXTT1=
EXTT2=
EXTT3=
EXTT4=
EXTT5=
EXTT6=
EXTT7=
EXTT8=
EXTT9=
EXTT10=
PLAYORDER=
